<?xml version="1.0" standalone="no"?>
<!DOCTYPE svg PUBLIC "-//W3C//DTD SVG 20010904//EN"
 "http://www.w3.org/TR/2001/REC-SVG-20010904/DTD/svg10.dtd">
<svg version="1.0" xmlns="http://www.w3.org/2000/svg"
 width="200.000000pt" height="200.000000pt" viewBox="0 0 200.000000 200.000000"
 preserveAspectRatio="xMidYMid meet">
<metadata>
Created by potrace 1.14, written by Peter Selinger 2001-2017
</metadata>
<g transform="translate(0.000000,200.000000) scale(0.100000,-0.100000)"
fill="#000000" stroke="none">
<path d="M0 1000 l0 -1000 1000 0 1000 0 0 1000 0 1000 -1000 0 -1000 0 0
-1000z m914 496 c50 -29 65 -61 50 -105 -15 -41 -55 -49 -109 -23 -100 49
-151 23 -222 -112 -18 -33 -33 -56 -33 -49 0 6 -3 20 -6 30 -5 15 -4 15 5 3 8
-12 10 -8 8 17 -1 18 -3 33 -5 33 -1 0 -9 -18 -18 -40 -20 -49 -29 -46 -16 4
11 39 5 79 -10 70 -13 -8 -2 28 22 76 21 40 71 90 115 114 47 26 160 17 219
-18z m395 14 c110 -55 172 -194 175 -385 1 -134 -18 -209 -68 -260 -19 -19
-43 -35 -53 -34 -15 0 -14 2 5 9 12 5 22 12 22 15 0 4 -4 4 -9 1 -5 -4 -17 -3
-26 0 -12 5 -14 9 -4 14 9 6 8 12 -5 25 -13 13 -28 16 -69 12 l-52 -6 58 12
c86 17 101 42 105 172 5 123 -17 193 -82 261 -50 52 -79 56 -158 22 -38 -16
-56 -19 -76 -12 -31 11 -48 50 -38 87 18 71 187 112 275 67z m-499 -264 c0
-30 -16 -42 -35 -26 -25 21 -19 50 10 50 20 0 25 -5 25 -24z m424 8 c8 -21 -1
-34 -24 -34 -10 0 -21 4 -24 9 -10 16 5 41 24 41 10 0 21 -7 24 -16z m-474
-49 c16 -19 -3 -45 -31 -45 -14 0 -19 7 -19 30 0 23 5 30 19 30 10 0 24 -7 31
-15z m100 -15 c0 -34 -14 -38 -42 -14 -17 16 -17 18 0 30 28 22 42 16 42 -16z
m318 6 c6 -29 -15 -43 -35 -24 -14 14 -14 20 -3 33 16 19 34 15 38 -9z m102 8
c11 -12 11 -18 -2 -31 -19 -18 -38 -10 -38 16 0 33 20 40 40 15z m-472 -67 c3
-23 0 -27 -22 -27 -21 0 -26 5 -26 23 0 13 3 27 7 31 15 14 38 0 41 -27z m422
17 c11 -12 10 -18 -3 -32 -16 -15 -18 -15 -34 0 -13 14 -14 20 -3 32 7 9 16
16 20 16 4 0 13 -7 20 -16z m-135 -94 c3 -6 -1 -7 -9 -4 -18 7 -21 14 -7 14 6
0 13 -4 16 -10z m-424 -330 c28 -15 25 -50 -4 -50 -13 0 -28 5 -34 11 -5 5
-32 9 -59 7 l-49 -3 -3 -42 c-3 -41 -2 -42 32 -49 40 -7 86 1 86 16 0 5 -14
10 -32 12 -17 2 -33 9 -36 16 -3 9 13 12 57 12 l61 0 0 -32 c0 -57 -10 -63
-103 -63 -106 0 -117 8 -117 86 0 79 12 89 106 89 42 0 84 -5 95 -10z m256
-74 c24 -44 43 -82 43 -86 0 -14 -52 -3 -61 13 -15 25 -114 25 -128 -1 -8 -15
-33 -21 -59 -13 -3 1 34 74 66 129 23 40 27 43 61 40 34 -3 38 -8 78 -82z
m189 27 l32 -57 32 57 c30 54 34 57 71 57 l39 0 0 -80 c0 -44 0 -83 0 -87 0
-4 -10 -7 -22 -7 -21 0 -23 4 -23 62 0 34 -1 62 -2 62 -1 0 -19 -28 -39 -63
-48 -84 -66 -83 -116 4 l-38 64 0 -61 c0 -68 -3 -74 -31 -67 -17 5 -19 15 -19
89 l0 84 43 0 c41 0 43 -2 73 -57z m414 37 c0 -18 -7 -20 -70 -20 -56 0 -70
-3 -70 -15 0 -12 14 -15 65 -15 58 0 65 -2 65 -20 0 -18 -5 -19 -60 -16 -59 4
-86 -8 -59 -25 8 -5 40 -9 72 -9 48 0 57 -3 57 -17 0 -16 -11 -18 -95 -18
l-95 0 0 88 0 87 95 0 c88 0 95 -1 95 -20z m-874 -209 c10 8 10 6 1 -14 -10
-22 -13 -23 -24 -8 -16 20 -17 39 -1 23 8 -8 15 -8 24 -1z m84 -6 c15 -18 5
-35 -20 -35 -10 0 -22 5 -25 10 -7 11 12 40 25 40 4 0 13 -7 20 -15z m60 -25
c5 0 11 8 13 18 4 13 5 11 6 -5 1 -17 -5 -23 -19 -23 -15 0 -20 6 -19 28 2 23
2 24 6 5 2 -13 8 -23 13 -23z m96 13 c1 -15 -4 -21 -17 -20 -13 1 -19 9 -19
25 0 31 35 26 36 -5z m79 18 c-3 -5 -1 -12 5 -16 5 -3 10 -10 10 -15 0 -6 -9
-2 -19 7 -20 16 -19 33 0 33 6 0 8 -4 4 -9z m163 -19 c2 -12 -1 -22 -6 -22 -6
0 -8 10 -5 21 4 16 2 20 -8 17 -8 -3 -13 -13 -12 -23 1 -12 -2 -14 -9 -7 -15
15 -1 44 19 40 10 -2 19 -13 21 -26z m69 21 c-13 -3 -17 -11 -14 -24 5 -20 -7
-26 -18 -9 -9 15 14 40 34 39 13 -1 12 -2 -2 -6z m93 -32 c0 -3 -11 -7 -24 -7
-23 -2 -24 0 -13 23 10 23 12 24 24 7 7 -10 13 -20 13 -23z m53 26 c3 -8 1
-20 -4 -28 -6 -10 -9 -7 -9 14 0 29 5 35 13 14z m-317 -12 c-3 -10 1 -15 11
-15 9 0 14 -3 10 -6 -12 -12 -37 5 -31 21 3 8 8 15 11 15 3 0 3 -7 -1 -15z
m344 -6 c0 -11 -4 -18 -10 -14 -5 3 -7 12 -3 20 7 21 13 19 13 -6z m-162 -14
c-3 -3 -9 2 -12 12 -6 14 -5 15 5 6 7 -7 10 -15 7 -18z"/>
<path d="M827 665 l-17 -35 35 0 c40 0 42 5 17 42 l-18 28 -17 -35z"/>
<path d="M705 501 c-7 -12 12 -24 25 -16 11 7 4 25 -10 25 -5 0 -11 -4 -15 -9z"/>
<path d="M870 500 c0 -5 5 -10 10 -10 6 0 10 5 10 10 0 6 -4 10 -10 10 -5 0
-10 -4 -10 -10z"/>
</g>
</svg>
